<?xml version="1.0" encoding="UTF-8" standalone="no"?>
<!DOCTYPE svg PUBLIC "-//W3C//DTD SVG 1.1//EN" "http://www.w3.org/Graphics/SVG/1.1/DTD/svg11.dtd">
<svg width="100%" height="100%" viewBox="0 0 105 105" version="1.1" xmlns="http://www.w3.org/2000/svg" xmlns:xlink="http://www.w3.org/1999/xlink" xml:space="preserve" style="fill-rule:evenodd;clip-rule:evenodd;stroke-linecap:round;stroke-linejoin:round;stroke-miterlimit:1.41421;">
    <g transform="matrix(0.571816,7.65556e-14,2.5904e-13,1.44957,-554.161,-404.73)">
        <g transform="matrix(1,-5.28125e-14,-1.787e-13,0.394472,0,0)">
            <circle cx="1060.17" cy="770.555" r="19.107" style="fill:rgb(233,73,77);stroke-width:5.25px;stroke:black;"/>
        </g>
        <g transform="matrix(1,-5.28125e-14,-1.787e-13,0.394472,-49.6113,-5.28376)">
            <circle cx="1060.17" cy="770.555" r="19.107" style="fill:rgb(233,73,77);stroke-width:5.25px;stroke:black;"/>
        </g>
        <g transform="matrix(1,-5.28125e-14,-1.787e-13,0.394472,51.1523,-5.39625)">
            <circle cx="1060.17" cy="770.555" r="19.107" style="fill:rgb(233,73,77);stroke-width:5.25px;stroke:black;"/>
        </g>
        <g transform="matrix(1,-5.28125e-14,-3.42483e-13,0.756014,-48.194,-314.159)">
            <path d="M1023.11,854.329L1094.39,854.329C1094.39,854.329 1059.42,793.195 1024.58,852.721" style="fill:rgb(233,73,77);stroke-width:3.43px;stroke:black;"/>
        </g>
        <g transform="matrix(1,-5.28125e-14,-3.42483e-13,0.756014,52.5697,-314.272)">
            <path d="M1023.11,854.329L1094.39,854.329C1094.39,854.329 1059.42,793.195 1024.58,852.721" style="fill:rgb(233,73,77);stroke-width:3.43px;stroke:black;"/>
        </g>
        <g transform="matrix(1,-5.28125e-14,-3.42483e-13,0.756014,1.41732,-308.876)">
            <path d="M1023.11,854.329L1094.39,854.329C1094.39,854.329 1059.42,793.195 1024.58,852.721" style="fill:rgb(233,73,77);stroke-width:3.43px;stroke:black;"/>
        </g>
    </g>
</svg>
