<?xml version="1.0" encoding="UTF-8" standalone="no"?>
<!DOCTYPE svg PUBLIC "-//W3C//DTD SVG 1.1//EN" "http://www.w3.org/Graphics/SVG/1.1/DTD/svg11.dtd">
<svg width="100%" height="100%" viewBox="0 0 105 105" version="1.1" xmlns="http://www.w3.org/2000/svg" xmlns:xlink="http://www.w3.org/1999/xlink" xml:space="preserve" style="fill-rule:evenodd;clip-rule:evenodd;stroke-linecap:round;stroke-linejoin:round;stroke-miterlimit:1.41421;">
    <g transform="matrix(0.414739,-0.448754,1.13761,1.05138,-548.906,279.972)">
        <g transform="matrix(0.668582,-3.53095e-14,-1.19476e-13,0.263737,245.474,46.4466)">
            <path d="M991.762,438.465C987.785,438.073 983.779,438.073 979.802,438.465L978.004,447.909C974.197,448.487 970.466,449.486 966.88,450.89L960.602,443.609C956.962,445.259 953.492,447.262 950.244,449.589L953.41,458.667C950.401,461.071 947.67,463.802 945.266,466.811L936.189,463.645C933.861,466.893 931.858,470.362 930.208,474.003L937.489,480.281C936.085,483.867 935.086,487.598 934.508,491.405L925.064,493.202C924.672,497.18 924.672,501.186 925.064,505.163L934.508,506.96C935.086,510.767 936.085,514.498 937.489,518.084L930.208,524.363C931.858,528.003 933.861,531.472 936.189,534.721L945.266,531.555C947.67,534.563 950.401,537.294 953.41,539.698L950.244,548.776C953.492,551.104 956.962,553.107 960.602,554.756L966.88,547.475C970.466,548.879 974.197,549.879 978.004,550.456L979.802,559.901C983.779,560.292 987.785,560.292 991.762,559.901L993.559,550.456C997.366,549.879 1001.1,548.879 1004.68,547.475L1010.96,554.756C1014.6,553.107 1018.07,551.104 1021.32,548.776L1018.15,539.698C1021.16,537.294 1023.89,534.563 1026.3,531.555L1035.38,534.721C1037.7,531.472 1039.71,528.003 1041.36,524.363L1034.07,518.084C1035.48,514.498 1036.48,510.767 1037.06,506.96L1046.5,505.163C1046.89,501.186 1046.89,497.18 1046.5,493.202L1037.06,491.405C1036.48,487.598 1035.48,483.867 1034.07,480.281L1041.36,474.003C1039.71,470.362 1037.7,466.893 1035.38,463.645L1026.3,466.811C1023.89,463.802 1021.16,461.071 1018.15,458.667L1021.32,449.589C1018.07,447.262 1014.6,445.259 1010.96,443.609L1004.68,450.89C1001.1,449.486 997.366,448.487 993.559,447.909L991.762,438.465ZM985.782,486.98C992.516,486.98 997.984,492.448 997.984,499.183C997.984,505.917 992.516,511.385 985.782,511.385C979.047,511.385 973.579,505.917 973.579,499.183C973.579,492.448 979.047,486.98 985.782,486.98Z" style="fill:none;stroke-width:6.12px;stroke:black;"/>
        </g>
        <g transform="matrix(0.538836,-2.84573e-14,-9.62903e-14,0.212556,426.47,95.5041)">
            <path d="M991.762,438.465C987.785,438.073 983.779,438.073 979.802,438.465L978.004,447.909C974.197,448.487 970.466,449.486 966.88,450.89L960.602,443.609C956.962,445.259 953.492,447.262 950.244,449.589L953.41,458.667C950.401,461.071 947.67,463.802 945.266,466.811L936.189,463.645C933.861,466.893 931.858,470.362 930.208,474.003L937.489,480.281C936.085,483.867 935.086,487.598 934.508,491.405L925.064,493.202C924.672,497.18 924.672,501.186 925.064,505.163L934.508,506.96C935.086,510.767 936.085,514.498 937.489,518.084L930.208,524.363C931.858,528.003 933.861,531.472 936.189,534.721L945.266,531.555C947.67,534.563 950.401,537.294 953.41,539.698L950.244,548.776C953.492,551.104 956.962,553.107 960.602,554.756L966.88,547.475C970.466,548.879 974.197,549.879 978.004,550.456L979.802,559.901C983.779,560.292 987.785,560.292 991.762,559.901L993.559,550.456C997.366,549.879 1001.1,548.879 1004.68,547.475L1010.96,554.756C1014.6,553.107 1018.07,551.104 1021.32,548.776L1018.15,539.698C1021.16,537.294 1023.89,534.563 1026.3,531.555L1035.38,534.721C1037.7,531.472 1039.71,528.003 1041.36,524.363L1034.07,518.084C1035.48,514.498 1036.48,510.767 1037.06,506.96L1046.5,505.163C1046.89,501.186 1046.89,497.18 1046.5,493.202L1037.06,491.405C1036.48,487.598 1035.48,483.867 1034.07,480.281L1041.36,474.003C1039.71,470.362 1037.7,466.893 1035.38,463.645L1026.3,466.811C1023.89,463.802 1021.16,461.071 1018.15,458.667L1021.32,449.589C1018.07,447.262 1014.6,445.259 1010.96,443.609L1004.68,450.89C1001.1,449.486 997.366,448.487 993.559,447.909L991.762,438.465ZM985.782,486.98C992.516,486.98 997.984,492.448 997.984,499.183C997.984,505.917 992.516,511.385 985.782,511.385C979.047,511.385 973.579,505.917 973.579,499.183C973.579,492.448 979.047,486.98 985.782,486.98Z" style="fill:none;stroke-width:7.59px;stroke:black;"/>
        </g>
        <g transform="matrix(0.375411,-1.98264e-14,-6.70862e-14,0.148089,610.476,105.681)">
            <path d="M991.762,438.465C987.785,438.073 983.779,438.073 979.802,438.465L978.004,447.909C974.197,448.487 970.466,449.486 966.88,450.89L960.602,443.609C956.962,445.259 953.492,447.262 950.244,449.589L953.41,458.667C950.401,461.071 947.67,463.802 945.266,466.811L936.189,463.645C933.861,466.893 931.858,470.362 930.208,474.003L937.489,480.281C936.085,483.867 935.086,487.598 934.508,491.405L925.064,493.202C924.672,497.18 924.672,501.186 925.064,505.163L934.508,506.96C935.086,510.767 936.085,514.498 937.489,518.084L930.208,524.363C931.858,528.003 933.861,531.472 936.189,534.721L945.266,531.555C947.67,534.563 950.401,537.294 953.41,539.698L950.244,548.776C953.492,551.104 956.962,553.107 960.602,554.756L966.88,547.475C970.466,548.879 974.197,549.879 978.004,550.456L979.802,559.901C983.779,560.292 987.785,560.292 991.762,559.901L993.559,550.456C997.366,549.879 1001.1,548.879 1004.68,547.475L1010.96,554.756C1014.6,553.107 1018.07,551.104 1021.32,548.776L1018.15,539.698C1021.16,537.294 1023.89,534.563 1026.3,531.555L1035.38,534.721C1037.7,531.472 1039.71,528.003 1041.36,524.363L1034.07,518.084C1035.48,514.498 1036.48,510.767 1037.06,506.96L1046.5,505.163C1046.89,501.186 1046.89,497.18 1046.5,493.202L1037.06,491.405C1036.48,487.598 1035.48,483.867 1034.07,480.281L1041.36,474.003C1039.71,470.362 1037.7,466.893 1035.38,463.645L1026.3,466.811C1023.89,463.802 1021.16,461.071 1018.15,458.667L1021.32,449.589C1018.07,447.262 1014.6,445.259 1010.96,443.609L1004.68,450.89C1001.1,449.486 997.366,448.487 993.559,447.909L991.762,438.465ZM985.782,486.98C992.516,486.98 997.984,492.448 997.984,499.183C997.984,505.917 992.516,511.385 985.782,511.385C979.047,511.385 973.579,505.917 973.579,499.183C973.579,492.448 979.047,486.98 985.782,486.98Z" style="fill:none;stroke-width:10.9px;stroke:black;"/>
        </g>
    </g>
</svg>
