<?xml version="1.0" standalone="no"?><!DOCTYPE svg PUBLIC "-//W3C//DTD SVG 1.1//EN" "http://www.w3.org/Graphics/SVG/1.1/DTD/svg11.dtd"><svg width="100%" height="100%" viewBox="0 0 80 80" version="1.1" xmlns="http://www.w3.org/2000/svg" xmlns:xlink="http://www.w3.org/1999/xlink" xml:space="preserve" style="fill-rule:evenodd;clip-rule:evenodd;stroke-linejoin:round;stroke-miterlimit:1.41421;"><circle cx="40" cy="40" r="39.5" style="fill:#e87e04;"/><path d="M54.038,16.2c0.554,0.018 1.106,0.053 1.656,0.117c1.311,0.151 2.606,0.442 3.854,0.872c1.436,0.496 2.81,1.177 4.059,2.043c0.927,0.643 1.781,1.388 2.538,2.224c0.548,0.605 1.045,1.257 1.485,1.944c0.359,0.561 0.68,1.146 0.963,1.749c0.221,0.469 0.418,0.95 0.592,1.439c1.176,3.29 1.295,6.879 0.76,10.308c-0.077,0.49 -0.166,0.978 -0.268,1.463c-0.677,3.211 -1.888,6.299 -3.435,9.189c-0.217,0.406 -0.445,0.805 -0.671,1.206c-0.067,0.119 -0.132,0.239 -0.199,0.357c-0.19,0.336 -0.389,0.666 -0.595,0.993c-0.505,0.798 -1.053,1.569 -1.631,2.315c-1.314,1.694 -2.785,3.263 -4.336,4.741c-1.814,1.73 -3.742,3.338 -5.733,4.859c-2.998,2.291 -6.143,4.388 -9.374,6.335c-0.417,0.251 -0.836,0.5 -1.257,0.746c-0.138,0.081 -0.276,0.162 -0.414,0.242c-0.287,0.166 -0.568,0.341 -0.88,0.459c-0.572,0.217 -1.202,0.268 -1.802,0.146c-0.257,-0.053 -0.507,-0.136 -0.743,-0.249c-0.079,-0.037 -0.155,-0.081 -0.232,-0.121c-0.274,-0.158 -0.548,-0.317 -0.821,-0.477c-3.07,-1.806 -6.069,-3.733 -8.949,-5.828c-2.04,-1.483 -4.023,-3.049 -5.908,-4.725c-1.323,-1.176 -2.598,-2.408 -3.796,-3.713c-1.141,-1.243 -2.214,-2.553 -3.165,-3.949c-0.349,-0.513 -0.679,-1.038 -0.993,-1.574c-0.107,-0.185 -0.209,-0.371 -0.314,-0.557c-0.133,-0.236 -0.268,-0.471 -0.4,-0.708c-0.537,-0.979 -1.041,-1.975 -1.497,-2.995c-0.402,-0.898 -0.769,-1.813 -1.095,-2.741c-0.259,-0.735 -0.492,-1.479 -0.697,-2.231c-0.177,-0.649 -0.334,-1.305 -0.467,-1.965c-0.738,-3.657 -0.773,-7.531 0.397,-11.104c0.162,-0.494 0.346,-0.98 0.554,-1.457c0.622,-1.426 1.455,-2.76 2.482,-3.93c0.494,-0.564 1.032,-1.088 1.607,-1.569c1.633,-1.364 3.552,-2.369 5.576,-3.009c3.508,-1.11 7.341,-1.131 10.865,-0.077c2.036,0.609 3.959,1.575 5.666,2.842c0.853,0.633 1.647,1.34 2.385,2.104l0.098,0.102l0.097,0.103c0.129,-0.137 0.26,-0.273 0.392,-0.408c0.81,-0.813 1.684,-1.559 2.625,-2.216c1.937,-1.352 4.132,-2.322 6.436,-2.844c0.955,-0.216 1.927,-0.356 2.905,-0.419c0.4,-0.026 0.801,-0.036 1.202,-0.038c0.239,0.001 0.239,0.001 0.478,0.006ZM53.402,22.695c-0.314,0.006 -0.628,0.02 -0.942,0.048c-0.635,0.058 -1.266,0.165 -1.884,0.323c-1.066,0.272 -2.093,0.693 -3.042,1.248c-0.922,0.541 -1.768,1.206 -2.519,1.966c-0.834,0.844 -1.543,1.799 -2.148,2.818l-0.061,0.104c-0.125,0.195 -0.151,0.248 -0.298,0.427c-0.166,0.201 -0.356,0.382 -0.564,0.538c-0.772,0.576 -1.783,0.781 -2.718,0.552c-0.337,-0.083 -0.661,-0.22 -0.955,-0.405c-0.368,-0.231 -0.688,-0.536 -0.937,-0.892c-0.093,-0.134 -0.128,-0.201 -0.201,-0.324c-0.074,-0.126 -0.15,-0.25 -0.227,-0.373c-0.094,-0.15 -0.191,-0.299 -0.29,-0.447c-0.573,-0.841 -1.224,-1.626 -1.965,-2.323c-1.192,-1.121 -2.601,-2.001 -4.142,-2.556c-2.625,-0.946 -5.593,-0.947 -8.209,0.033c-1.017,0.381 -1.984,0.913 -2.819,1.61c-0.382,0.319 -0.734,0.673 -1.05,1.057c-0.456,0.552 -0.836,1.165 -1.14,1.812c-0.876,1.865 -1.123,3.975 -1.019,6.015c0.1,1.984 0.53,3.945 1.159,5.826c0.622,1.86 1.443,3.65 2.403,5.359c0.087,0.154 0.176,0.306 0.263,0.46c0.145,0.257 0.286,0.515 0.439,0.767c0.31,0.511 0.645,1.007 0.997,1.489c0.707,0.97 1.483,1.888 2.3,2.767c0.903,0.972 1.856,1.898 2.84,2.788c1.228,1.11 2.504,2.165 3.812,3.177c1.411,1.092 2.86,2.135 4.336,3.138c1.693,1.151 3.423,2.246 5.179,3.298c0.249,-0.149 0.499,-0.3 0.747,-0.45c2.47,-1.509 4.887,-3.101 7.218,-4.817c1.417,-1.043 2.803,-2.13 4.14,-3.273c1.313,-1.122 2.582,-2.298 3.771,-3.551c0.966,-1.018 1.882,-2.087 2.7,-3.228c0.312,-0.435 0.61,-0.88 0.887,-1.338c0.153,-0.252 0.295,-0.51 0.44,-0.767c0.126,-0.224 0.256,-0.446 0.38,-0.671c1.077,-1.947 1.974,-4.002 2.596,-6.14c0.185,-0.637 0.345,-1.281 0.476,-1.931c0.111,-0.551 0.202,-1.106 0.268,-1.665c0.049,-0.411 0.084,-0.824 0.105,-1.238c0.017,-0.339 0.025,-0.679 0.021,-1.018c-0.02,-1.962 -0.405,-3.967 -1.397,-5.681c-0.126,-0.217 -0.262,-0.429 -0.407,-0.635c-0.214,-0.303 -0.448,-0.593 -0.702,-0.864c-0.403,-0.432 -0.855,-0.818 -1.34,-1.154c-0.801,-0.556 -1.689,-0.981 -2.614,-1.287c-0.808,-0.267 -1.646,-0.443 -2.493,-0.53c-0.359,-0.037 -0.72,-0.055 -1.081,-0.062c-0.157,-0.001 -0.157,-0.001 -0.313,0Z" style="fill:#fff;fill-rule:nonzero;"/></svg>