<?xml version="1.0" standalone="no"?><!DOCTYPE svg PUBLIC "-//W3C//DTD SVG 1.1//EN" "http://www.w3.org/Graphics/SVG/1.1/DTD/svg11.dtd"><svg width="100%" height="100%" viewBox="0 0 80 80" version="1.1" xmlns="http://www.w3.org/2000/svg" xmlns:xlink="http://www.w3.org/1999/xlink" xml:space="preserve" style="fill-rule:evenodd;clip-rule:evenodd;stroke-linejoin:round;stroke-miterlimit:1.41421;"><circle cx="40" cy="40" r="39.5" style="fill:#e87e04;"/><g><path d="M65.51,35.294c-0.091,-11.714 -8.787,-21.569 -20.13,-23.934c-11.424,-2.382 -23.727,3.27 -28.696,13.965c-2.513,5.406 -2.875,11.63 -1.047,17.302c1.878,5.829 6.083,10.693 11.351,13.738l0.942,-3.48l-0.057,0c-1.979,0 -2.387,2.448 -0.942,3.48c0.066,0.048 0.133,0.097 0.199,0.146c0.345,0.256 -0.156,-0.13 0.302,0.232c0.696,0.551 1.362,1.139 2.007,1.748c1.199,1.134 3,2.835 3.206,4.561c0.121,1.01 0.758,1.867 1.867,1.867l11.287,0c0.775,0 1.654,-0.563 1.801,-1.371c0.566,-3.103 2.93,-5.717 5.449,-7.183c1.608,-0.936 0.915,-3.48 -0.942,-3.48l-0.057,0l0.942,3.48c7.563,-4.371 12.443,-12.287 12.518,-21.071c0.02,-2.409 -3.714,-2.408 -3.735,0c-0.063,7.488 -4.234,14.128 -10.668,17.846c-1.613,0.933 -0.911,3.48 0.943,3.48l0.057,0l-0.943,-3.48c-3.405,1.983 -6.448,5.48 -7.165,9.416c0.6,-0.457 1.2,-0.914 1.8,-1.371l-11.287,0l1.868,1.867c-0.505,-4.228 -4.273,-7.56 -7.564,-9.912l-0.943,3.48l0.057,0c1.854,0 2.556,-2.547 0.943,-3.48c-5.147,-2.975 -8.861,-7.779 -10.212,-13.589c-1.266,-5.443 0.066,-11.152 3.166,-15.728c6.373,-9.41 19.672,-11.789 29.351,-6.338c6.421,3.617 10.54,10.433 10.597,17.809c0.019,2.407 3.754,2.409 3.735,0" style="fill:#fff;fill-rule:nonzero;"/><path d="M29.659,21.397c-2.702,2.392 -4.865,5.631 -6.097,9.005c-0.988,2.704 -1.1,5.753 -0.151,8.481c1.368,3.931 4.656,6.757 8.121,8.851c2.066,1.249 3.942,-1.981 1.884,-3.225c-2.701,-1.632 -5.415,-3.778 -6.489,-6.865c-0.786,-2.257 -0.444,-4.481 0.395,-6.674c1.025,-2.681 2.802,-5.007 4.978,-6.932c1.808,-1.599 -0.844,-4.23 -2.641,-2.641" style="fill:#fff;fill-rule:nonzero;"/><path d="M34.931,67.106l10.819,0c0,0 -5.645,9.495 -10.819,0" style="fill:#fff;fill-rule:nonzero;"/><path d="M34.931,67.729l10.819,0l-0.537,-0.937c-0.705,1.175 -1.68,2.263 -2.797,3.053c-3.015,2.135 -5.463,-0.412 -6.948,-3.053c-0.394,-0.699 -1.469,-0.072 -1.075,0.629c1.63,2.897 4.228,5.555 7.731,4.028c1.73,-0.755 3.206,-2.432 4.164,-4.028c0.244,-0.407 -0.07,-0.937 -0.538,-0.937l-10.819,0c-0.803,0 -0.803,1.245 0,1.245" style="fill:#fff;fill-rule:nonzero;"/></g></svg>