<?xml version="1.0" standalone="no"?><!DOCTYPE svg PUBLIC "-//W3C//DTD SVG 1.1//EN" "http://www.w3.org/Graphics/SVG/1.1/DTD/svg11.dtd"><svg width="100%" height="100%" viewBox="0 0 80 80" version="1.1" xmlns="http://www.w3.org/2000/svg" xmlns:xlink="http://www.w3.org/1999/xlink" xml:space="preserve" style="fill-rule:evenodd;clip-rule:evenodd;stroke-linejoin:round;stroke-miterlimit:1.41421;"><circle cx="40" cy="40" r="39.5" style="fill:#e87e04;"/><g><g><path d="M34.127,43.889c0.113,0.009 0.224,0.022 0.335,0.049c0.257,0.063 0.498,0.185 0.702,0.353c0.145,0.12 0.271,0.264 0.371,0.424c0.262,0.418 0.337,0.938 0.203,1.414c-0.04,0.145 -0.1,0.285 -0.176,0.415c-0.096,0.163 -0.217,0.31 -0.359,0.434c-0.142,0.125 -0.304,0.226 -0.477,0.299c-0.093,0.039 -0.118,0.045 -0.214,0.075c-0.181,0.044 -0.364,0.083 -0.546,0.128c-0.789,0.199 -1.568,0.439 -2.334,0.715c-0.575,0.208 -1.144,0.436 -1.702,0.686c-0.461,0.206 -0.916,0.428 -1.362,0.666c-0.359,0.193 -0.713,0.396 -1.059,0.612c-0.25,0.155 -0.496,0.317 -0.737,0.486c-1.423,0.996 -2.716,2.257 -3.491,3.83c-0.124,0.251 -0.233,0.508 -0.328,0.771c-0.156,0.434 -0.268,0.882 -0.343,1.338l-0.001,0.006c0.241,-0.138 0.24,-0.137 0.482,-0.272c0.255,-0.138 0.255,-0.138 0.512,-0.275c0.414,-0.214 0.831,-0.422 1.255,-0.616c1.001,-0.459 2.033,-0.853 3.09,-1.165c2.507,-0.739 5.173,-1.004 7.76,-0.564c0.874,0.148 1.741,0.374 2.569,0.694c0.608,0.235 1.201,0.51 1.75,0.861l0.037,0.025c0.093,0.066 0.181,0.134 0.262,0.215c0.161,0.159 0.29,0.35 0.379,0.558c0.224,0.526 0.176,1.143 -0.127,1.628c-0.1,0.16 -0.226,0.303 -0.371,0.424c-0.145,0.12 -0.31,0.217 -0.485,0.285c-0.425,0.165 -0.905,0.159 -1.325,-0.018c-0.156,-0.065 -0.293,-0.161 -0.438,-0.245c-0.09,-0.051 -0.18,-0.098 -0.272,-0.144c-0.777,-0.379 -1.611,-0.631 -2.461,-0.785c-1.537,-0.277 -3.122,-0.226 -4.654,0.059c-0.421,0.079 -0.839,0.175 -1.252,0.287c-0.522,0.141 -1.036,0.306 -1.543,0.494c-0.564,0.208 -1.118,0.442 -1.662,0.699c-0.686,0.323 -1.355,0.681 -2.008,1.067c-0.74,0.437 -1.456,0.912 -2.158,1.408l-0.092,0.061c-0.086,0.049 -0.106,0.063 -0.196,0.104c-0.135,0.062 -0.278,0.106 -0.424,0.132c-0.514,0.09 -1.054,-0.057 -1.452,-0.396c-0.113,-0.096 -0.213,-0.206 -0.298,-0.328c-0.107,-0.151 -0.189,-0.319 -0.243,-0.496c-0.05,-0.164 -0.074,-0.334 -0.1,-0.503c-0.161,-1.021 -0.204,-2.062 -0.104,-3.092c0.112,-1.149 0.404,-2.276 0.868,-3.333c0.163,-0.371 0.346,-0.733 0.548,-1.084c1.299,-2.26 3.328,-4.011 5.548,-5.332c0.354,-0.211 0.714,-0.411 1.079,-0.602c0.461,-0.242 0.93,-0.469 1.405,-0.681c0.59,-0.264 1.189,-0.507 1.795,-0.729c1.091,-0.401 2.206,-0.744 3.341,-0.995l0.053,-0.012c0.112,-0.019 0.111,-0.019 0.224,-0.032c0.113,-0.005 0.112,-0.005 0.226,-0.003Z" style="fill:#fff;fill-rule:nonzero;"/><path d="M46.099,43.892c0.094,0.011 0.185,0.024 0.277,0.044c0.171,0.037 0.341,0.077 0.511,0.119c0.905,0.229 1.799,0.503 2.678,0.821c0.659,0.237 1.308,0.498 1.947,0.784c0.475,0.212 0.944,0.439 1.405,0.681c0.365,0.191 0.725,0.391 1.079,0.602c2.22,1.321 4.249,3.072 5.548,5.332c0.202,0.351 0.385,0.713 0.548,1.084c0.464,1.057 0.756,2.184 0.868,3.333c0.1,1.03 0.057,2.071 -0.104,3.092c-0.026,0.169 -0.05,0.339 -0.1,0.503c-0.054,0.177 -0.136,0.345 -0.243,0.496c-0.3,0.428 -0.787,0.705 -1.308,0.745c-0.148,0.012 -0.297,0.004 -0.442,-0.021c-0.146,-0.026 -0.289,-0.07 -0.424,-0.132c-0.09,-0.041 -0.11,-0.055 -0.196,-0.104c-0.199,-0.132 -0.393,-0.273 -0.589,-0.409c-0.761,-0.517 -1.54,-1.007 -2.346,-1.451c-0.705,-0.388 -1.428,-0.742 -2.169,-1.053c-2.485,-1.044 -5.236,-1.618 -7.928,-1.217c-0.567,0.084 -1.129,0.212 -1.674,0.388c-0.462,0.149 -0.916,0.331 -1.342,0.565c-0.099,0.055 -0.194,0.115 -0.29,0.175l-0.099,0.054c-0.104,0.048 -0.207,0.091 -0.317,0.121c-0.255,0.071 -0.524,0.083 -0.784,0.036c-0.186,-0.033 -0.366,-0.097 -0.532,-0.187c-0.165,-0.091 -0.316,-0.208 -0.445,-0.345c-0.39,-0.419 -0.555,-1.015 -0.435,-1.574c0.047,-0.221 0.138,-0.433 0.265,-0.62c0.106,-0.157 0.237,-0.295 0.386,-0.41c0.115,-0.088 0.24,-0.163 0.364,-0.236c0.175,-0.103 0.355,-0.199 0.537,-0.289c0.941,-0.467 1.951,-0.795 2.978,-1.013c1.611,-0.341 3.276,-0.401 4.912,-0.23c1.237,0.129 2.458,0.39 3.646,0.755c1.241,0.381 2.447,0.875 3.61,1.454c0.508,0.253 1.006,0.523 1.5,0.805c-0.018,-0.119 -0.041,-0.237 -0.065,-0.354c-0.089,-0.419 -0.21,-0.829 -0.369,-1.226c-0.703,-1.762 -2.064,-3.172 -3.585,-4.263c-0.239,-0.172 -0.483,-0.336 -0.732,-0.495c-0.345,-0.219 -0.697,-0.426 -1.056,-0.622c-0.446,-0.244 -0.902,-0.471 -1.365,-0.682c-0.563,-0.257 -1.137,-0.491 -1.718,-0.704c-0.545,-0.2 -1.097,-0.382 -1.654,-0.544c-0.412,-0.12 -0.829,-0.233 -1.249,-0.322l-0.11,-0.026c-0.109,-0.034 -0.214,-0.071 -0.316,-0.122c-0.237,-0.118 -0.445,-0.29 -0.607,-0.499c-0.116,-0.149 -0.207,-0.316 -0.269,-0.494c-0.05,-0.143 -0.082,-0.291 -0.094,-0.442c-0.041,-0.492 0.132,-0.988 0.47,-1.349c0.128,-0.138 0.279,-0.255 0.445,-0.345c0.166,-0.09 0.346,-0.153 0.532,-0.186c0.099,-0.018 0.124,-0.018 0.224,-0.026c0.113,-0.002 0.113,-0.002 0.226,0.003Z" style="fill:#fff;fill-rule:nonzero;"/></g><path d="M42.863,62.477c0.164,-0.854 -0.061,-1.736 -0.615,-2.406c-0.553,-0.67 -1.377,-1.058 -2.246,-1.058c-0.001,0 -0.003,0 -0.004,0c-0.869,0 -1.693,0.388 -2.246,1.058c-0.554,0.67 -0.779,1.552 -0.615,2.406c0.557,2.897 1.315,6.839 1.664,8.655c0.111,0.574 0.613,0.99 1.198,0.99c0.001,0 0.001,0 0.002,0c0.585,0 1.087,-0.416 1.198,-0.99c0.349,-1.816 1.107,-5.758 1.664,-8.655Z" style="fill:#e87e04;"/><path d="M40.097,58.51c0.409,0.017 0.81,0.095 1.19,0.249c0.73,0.297 1.345,0.847 1.72,1.539c0.163,0.302 0.281,0.628 0.348,0.964c0.079,0.403 0.08,0.811 0.02,1.216c-0.52,2.926 -1.121,5.837 -1.682,8.754c-0.053,0.246 -0.147,0.475 -0.295,0.679c-0.128,0.178 -0.291,0.331 -0.477,0.448c-0.426,0.27 -0.962,0.339 -1.443,0.186c-0.14,-0.044 -0.275,-0.107 -0.399,-0.186c-0.145,-0.091 -0.275,-0.203 -0.386,-0.332c-0.129,-0.15 -0.232,-0.322 -0.303,-0.507c-0.028,-0.071 -0.048,-0.144 -0.068,-0.218c-0.624,-2.898 -1.121,-5.822 -1.681,-8.733c-0.072,-0.403 -0.081,-0.811 -0.012,-1.215c0.132,-0.776 0.536,-1.495 1.131,-2.011c0.259,-0.224 0.553,-0.41 0.867,-0.547c0.376,-0.165 0.773,-0.254 1.181,-0.282c0.097,-0.004 0.192,-0.006 0.289,-0.004ZM39.931,59.518c-0.288,0.012 -0.57,0.067 -0.839,0.176c-0.514,0.209 -0.948,0.596 -1.212,1.085c-0.115,0.212 -0.198,0.442 -0.245,0.679c-0.057,0.284 -0.057,0.572 -0.015,0.858c0.521,2.925 1.058,5.848 1.683,8.752c0.029,0.111 0.079,0.213 0.154,0.3c0.221,0.257 0.605,0.324 0.899,0.154c0.08,-0.045 0.15,-0.106 0.207,-0.177c0.065,-0.082 0.107,-0.176 0.134,-0.277c0.625,-2.904 1.162,-5.827 1.683,-8.752c0.042,-0.286 0.042,-0.574 -0.015,-0.858c-0.047,-0.237 -0.13,-0.467 -0.245,-0.679c-0.264,-0.489 -0.698,-0.876 -1.212,-1.085c-0.269,-0.109 -0.551,-0.164 -0.839,-0.176c-0.07,-0.001 -0.069,-0.001 -0.138,0Z" style="fill:#fff;fill-rule:nonzero;"/><path d="M45.05,60.471c-0.268,-0.827 -0.891,-1.491 -1.699,-1.811c-0.808,-0.32 -1.717,-0.263 -2.479,0.157c0,0 -0.001,0.001 -0.002,0.001c-0.762,0.42 -1.296,1.157 -1.458,2.011c-0.161,0.854 0.067,1.736 0.623,2.404c1.886,2.269 4.452,5.357 5.634,6.778c0.373,0.45 1.014,0.571 1.526,0.289c0.001,0 0.001,0 0.001,-0.001c0.513,-0.282 0.753,-0.888 0.572,-1.444c-0.57,-1.759 -1.808,-5.578 -2.718,-8.384Z" style="fill:#e87e04;"/><path d="M42.342,57.952c0.314,0.01 0.624,0.054 0.925,0.145c0.753,0.228 1.415,0.718 1.852,1.371c0.159,0.237 0.282,0.491 0.38,0.757c0.956,2.814 1.834,5.653 2.751,8.479c0.072,0.24 0.1,0.487 0.069,0.737c-0.026,0.218 -0.095,0.43 -0.201,0.623c-0.071,0.129 -0.159,0.248 -0.261,0.355c-0.347,0.366 -0.85,0.564 -1.353,0.534c-0.171,-0.011 -0.339,-0.046 -0.499,-0.106c-0.185,-0.069 -0.359,-0.17 -0.51,-0.297c-0.058,-0.049 -0.111,-0.103 -0.164,-0.158c-1.945,-2.238 -3.791,-4.559 -5.686,-6.839c-0.079,-0.098 -0.155,-0.197 -0.224,-0.302c-0.189,-0.288 -0.335,-0.603 -0.43,-0.934c-0.156,-0.543 -0.175,-1.123 -0.055,-1.675c0.208,-0.951 0.834,-1.808 1.696,-2.268c0.277,-0.149 0.569,-0.264 0.876,-0.335c0.183,-0.042 0.367,-0.067 0.554,-0.081c0.094,-0.005 0.186,-0.007 0.28,-0.006ZM42.192,58.961c-0.355,0.018 -0.7,0.103 -1.017,0.266c-0.218,0.112 -0.419,0.257 -0.593,0.43c-0.443,0.438 -0.703,1.042 -0.715,1.664c-0.005,0.22 0.021,0.441 0.076,0.654c0.084,0.323 0.235,0.619 0.437,0.884c1.867,2.311 3.748,4.612 5.697,6.854c0.072,0.076 0.155,0.137 0.251,0.178c0.084,0.035 0.175,0.054 0.267,0.056c0.339,0.006 0.643,-0.237 0.713,-0.569c0.024,-0.113 0.018,-0.226 -0.01,-0.337c-0.854,-2.846 -1.793,-5.665 -2.749,-8.478c-0.069,-0.188 -0.156,-0.367 -0.268,-0.534c-0.283,-0.423 -0.7,-0.75 -1.179,-0.924c-0.209,-0.076 -0.426,-0.12 -0.647,-0.139c-0.088,-0.005 -0.175,-0.007 -0.263,-0.005Z" style="fill:#fff;fill-rule:nonzero;"/><path d="M34.758,60.471c0.268,-0.827 0.892,-1.491 1.7,-1.811c0.808,-0.32 1.717,-0.263 2.478,0.157c0.001,0 0.002,0.001 0.003,0.001c0.761,0.42 1.296,1.157 1.457,2.011c0.162,0.854 -0.066,1.736 -0.622,2.404c-1.886,2.269 -4.452,5.357 -5.634,6.778c-0.374,0.45 -1.014,0.571 -1.527,0.289c0,0 0,0 -0.001,-0.001c-0.512,-0.282 -0.752,-0.888 -0.572,-1.444c0.57,-1.759 1.808,-5.578 2.718,-8.384Z" style="fill:#e87e04;"/><path d="M37.653,57.953c0.156,0.008 0.31,0.022 0.464,0.049c0.341,0.059 0.671,0.17 0.978,0.328c0.282,0.145 0.543,0.329 0.774,0.545c0.644,0.603 1.036,1.45 1.078,2.331c0.017,0.344 -0.019,0.689 -0.105,1.021c-0.086,0.333 -0.222,0.652 -0.403,0.944c-0.067,0.108 -0.141,0.21 -0.218,0.311c-1.867,2.311 -3.797,4.571 -5.697,6.856c-0.164,0.189 -0.358,0.345 -0.585,0.452c-0.199,0.094 -0.415,0.15 -0.634,0.163c-0.504,0.03 -1.006,-0.168 -1.354,-0.534c-0.101,-0.107 -0.189,-0.226 -0.26,-0.355c-0.082,-0.15 -0.142,-0.311 -0.178,-0.478c-0.04,-0.194 -0.048,-0.394 -0.021,-0.59c0.011,-0.076 0.028,-0.149 0.046,-0.223c0.852,-2.84 1.827,-5.641 2.742,-8.461c0.091,-0.268 0.207,-0.525 0.358,-0.765c0.42,-0.665 1.067,-1.173 1.813,-1.421c0.3,-0.1 0.608,-0.153 0.922,-0.171c0.094,-0.003 0.187,-0.004 0.28,-0.002ZM37.485,58.96c-0.221,0.007 -0.439,0.038 -0.652,0.102c-0.531,0.161 -0.997,0.506 -1.306,0.967c-0.111,0.167 -0.198,0.346 -0.268,0.534c-0.955,2.813 -1.895,5.632 -2.748,8.478c-0.026,0.101 -0.034,0.204 -0.016,0.307c0.015,0.09 0.047,0.177 0.094,0.255c0.177,0.29 0.545,0.417 0.863,0.299c0.108,-0.04 0.2,-0.106 0.279,-0.189c1.949,-2.242 3.83,-4.543 5.697,-6.854c0.202,-0.265 0.354,-0.561 0.438,-0.884c0.055,-0.213 0.081,-0.434 0.076,-0.654c-0.013,-0.622 -0.272,-1.226 -0.715,-1.664c-0.174,-0.173 -0.375,-0.318 -0.593,-0.43c-0.317,-0.163 -0.662,-0.248 -1.017,-0.266c-0.066,-0.001 -0.066,-0.001 -0.132,-0.001Z" style="fill:#fff;fill-rule:nonzero;"/><g><ellipse cx="40.414" cy="37.837" rx="11.092" ry="23.697" style="fill:#e87e04;"/><path d="M40.51,12.376c0.475,0.009 0.948,0.061 1.412,0.162c0.308,0.066 0.611,0.153 0.907,0.258c1.86,0.659 3.395,2.006 4.604,3.534c0.176,0.222 0.345,0.448 0.508,0.678c0.254,0.356 0.493,0.722 0.721,1.094c0.276,0.453 0.535,0.917 0.778,1.389c0.328,0.637 0.627,1.289 0.902,1.95c0.805,1.938 1.404,3.96 1.852,6.009c0.544,2.49 0.866,5.028 1.002,7.573c0.181,3.372 0.045,6.769 -0.442,10.111c-0.381,2.616 -0.978,5.21 -1.872,7.7c-0.278,0.775 -0.585,1.539 -0.927,2.287c-0.259,0.567 -0.539,1.125 -0.841,1.671c-0.252,0.455 -0.52,0.902 -0.806,1.337c-0.197,0.3 -0.403,0.593 -0.618,0.88c-0.167,0.224 -0.34,0.443 -0.52,0.657c-1.203,1.438 -2.716,2.682 -4.519,3.272c-0.299,0.097 -0.605,0.176 -0.914,0.235c-0.436,0.083 -0.879,0.125 -1.323,0.125c-0.443,0 -0.887,-0.042 -1.322,-0.125c-0.31,-0.059 -0.615,-0.138 -0.914,-0.235c-1.803,-0.59 -3.316,-1.834 -4.52,-3.272c-0.179,-0.214 -0.352,-0.433 -0.519,-0.657c-0.215,-0.287 -0.421,-0.58 -0.618,-0.88c-0.286,-0.435 -0.555,-0.882 -0.807,-1.337c-0.302,-0.546 -0.581,-1.104 -0.84,-1.671c-0.342,-0.748 -0.649,-1.512 -0.927,-2.287c-0.894,-2.49 -1.491,-5.084 -1.872,-7.7c-0.487,-3.342 -0.623,-6.739 -0.443,-10.111c0.137,-2.545 0.458,-5.083 1.003,-7.573c0.448,-2.049 1.047,-4.071 1.852,-6.009c0.274,-0.661 0.574,-1.313 0.902,-1.95c0.243,-0.472 0.502,-0.936 0.778,-1.389c0.228,-0.372 0.467,-0.738 0.72,-1.094c0.164,-0.23 0.333,-0.456 0.509,-0.678c1.209,-1.528 2.744,-2.875 4.603,-3.534c0.297,-0.105 0.6,-0.192 0.907,-0.258c0.465,-0.101 0.937,-0.153 1.413,-0.162c0.096,-0.001 0.095,-0.001 0.191,0ZM40.367,15.905c-0.191,0.003 -0.381,0.02 -0.569,0.054c-1.049,0.184 -1.968,0.817 -2.72,1.544c-0.141,0.136 -0.277,0.276 -0.409,0.421c-0.176,0.192 -0.344,0.392 -0.506,0.596c-0.209,0.265 -0.407,0.538 -0.596,0.817c-0.238,0.353 -0.461,0.717 -0.672,1.087c-0.26,0.459 -0.5,0.93 -0.724,1.408c-0.273,0.582 -0.521,1.176 -0.748,1.778c-0.684,1.816 -1.183,3.7 -1.547,5.605c-0.452,2.357 -0.696,4.754 -0.767,7.153c-0.08,2.668 0.052,5.345 0.42,7.989c0.303,2.173 0.765,4.328 1.443,6.415c0.23,0.712 0.487,1.415 0.774,2.106c0.238,0.573 0.497,1.137 0.781,1.688c0.231,0.45 0.48,0.892 0.748,1.321c0.216,0.344 0.444,0.68 0.688,1.005c0.191,0.256 0.393,0.505 0.605,0.744c0.163,0.184 0.333,0.363 0.51,0.534c0.132,0.127 0.268,0.251 0.408,0.369c0.689,0.581 1.504,1.056 2.406,1.191c0.157,0.023 0.316,0.036 0.475,0.038c0.174,0.003 0.349,-0.008 0.522,-0.031c0.966,-0.131 1.833,-0.654 2.556,-1.285c0.14,-0.123 0.276,-0.251 0.408,-0.383c0.141,-0.14 0.276,-0.284 0.408,-0.433c0.212,-0.239 0.413,-0.488 0.605,-0.744c0.244,-0.325 0.472,-0.661 0.687,-1.005c0.269,-0.429 0.517,-0.871 0.749,-1.321c0.284,-0.551 0.543,-1.115 0.781,-1.688c0.287,-0.691 0.543,-1.394 0.774,-2.106c0.678,-2.087 1.14,-4.242 1.442,-6.415c0.369,-2.644 0.5,-5.321 0.421,-7.989c-0.071,-2.399 -0.316,-4.796 -0.767,-7.153c-0.365,-1.905 -0.863,-3.789 -1.548,-5.605c-0.227,-0.602 -0.474,-1.196 -0.747,-1.778c-0.224,-0.478 -0.464,-0.949 -0.725,-1.408c-0.21,-0.37 -0.433,-0.734 -0.671,-1.087c-0.189,-0.279 -0.387,-0.552 -0.596,-0.817c-0.162,-0.204 -0.331,-0.404 -0.507,-0.596c-0.131,-0.145 -0.267,-0.285 -0.408,-0.421c-0.73,-0.705 -1.615,-1.321 -2.625,-1.526c-0.188,-0.039 -0.377,-0.061 -0.569,-0.07c-0.063,-0.002 -0.127,-0.003 -0.19,-0.002Z" style="fill:#fff;fill-rule:nonzero;"/></g><g><circle cx="40.414" cy="26.24" r="4.538" style="fill:#e87e04;"/><path d="M40.544,21.2c0.214,0.008 0.426,0.024 0.637,0.056c0.532,0.082 1.05,0.249 1.528,0.495c0.938,0.48 1.714,1.256 2.195,2.194c0.226,0.441 0.386,0.916 0.474,1.404c0.097,0.546 0.104,1.109 0.02,1.658c-0.075,0.491 -0.224,0.971 -0.439,1.419c-0.264,0.547 -0.627,1.044 -1.067,1.463c-0.44,0.42 -0.955,0.759 -1.516,0.996c-0.619,0.263 -1.289,0.397 -1.962,0.397c-0.672,0 -1.342,-0.134 -1.962,-0.397c-0.56,-0.237 -1.076,-0.576 -1.516,-0.996c-0.439,-0.419 -0.802,-0.916 -1.066,-1.463c-0.216,-0.448 -0.364,-0.928 -0.439,-1.419c-0.084,-0.549 -0.077,-1.112 0.02,-1.658c0.087,-0.488 0.248,-0.963 0.474,-1.404c0.48,-0.938 1.256,-1.714 2.194,-2.194c0.479,-0.246 0.997,-0.413 1.528,-0.495c0.212,-0.032 0.424,-0.048 0.638,-0.056c0.13,-0.002 0.129,-0.002 0.259,0ZM40.31,22.208c-0.171,0.007 -0.341,0.019 -0.51,0.045c-0.425,0.065 -0.838,0.199 -1.221,0.395c-0.751,0.385 -1.372,1.006 -1.757,1.757c-0.18,0.352 -0.308,0.731 -0.378,1.121c-0.078,0.438 -0.084,0.889 -0.017,1.329c0.06,0.392 0.179,0.775 0.352,1.133c0.211,0.438 0.502,0.836 0.853,1.171c0.352,0.336 0.765,0.608 1.213,0.798c0.496,0.209 1.032,0.317 1.569,0.317c0.538,0 1.074,-0.108 1.569,-0.317c0.449,-0.19 0.861,-0.462 1.214,-0.798c0.351,-0.335 0.642,-0.733 0.853,-1.171c0.173,-0.358 0.291,-0.741 0.351,-1.133c0.068,-0.44 0.062,-0.891 -0.016,-1.329c-0.07,-0.39 -0.198,-0.769 -0.378,-1.121c-0.385,-0.751 -1.007,-1.372 -1.758,-1.757c-0.382,-0.196 -0.795,-0.33 -1.22,-0.395c-0.17,-0.026 -0.339,-0.038 -0.51,-0.045c-0.105,-0.001 -0.105,-0.001 -0.209,0Z" style="fill:#fff;fill-rule:nonzero;"/></g></g></svg>