<?xml version="1.0" encoding="UTF-8" standalone="no"?><!DOCTYPE svg PUBLIC "-//W3C//DTD SVG 1.1//EN" "http://www.w3.org/Graphics/SVG/1.1/DTD/svg11.dtd"><svg width="100%" height="100%" viewBox="0 0 50 50" version="1.1" xmlns="http://www.w3.org/2000/svg" xmlns:xlink="http://www.w3.org/1999/xlink" xml:space="preserve" style="fill-rule:evenodd;clip-rule:evenodd;stroke-linejoin:round;stroke-miterlimit:1.41421;"><path d="M17.609,0.008c0.094,0.008 0.187,0.013 0.28,0.024c0.186,0.022 0.371,0.054 0.553,0.096c0.73,0.17 1.415,0.509 1.99,0.982c0.215,0.178 0.414,0.373 0.595,0.585c0.06,0.07 0.116,0.144 0.174,0.216l15.346,20.258c0.054,0.075 0.11,0.149 0.161,0.226c0.155,0.23 0.288,0.474 0.4,0.727c0.484,1.103 0.522,2.37 0.103,3.5c-0.096,0.259 -0.215,0.51 -0.355,0.749c-0.125,0.212 -0.166,0.26 -0.309,0.46l-15.346,20.258c-0.058,0.072 -0.114,0.146 -0.174,0.216c-0.121,0.141 -0.249,0.275 -0.386,0.401c-0.476,0.443 -1.045,0.787 -1.661,1.008c-0.528,0.189 -1.089,0.286 -1.651,0.286c-1.224,0 -2.424,-0.468 -3.314,-1.292c-0.34,-0.316 -0.634,-0.68 -0.868,-1.079c-0.234,-0.398 -0.409,-0.83 -0.517,-1.277c-0.151,-0.627 -0.171,-1.283 -0.057,-1.917c0.097,-0.544 0.292,-1.07 0.573,-1.548c0.125,-0.213 0.165,-0.26 0.309,-0.461l13.201,-17.426l-13.201,-17.426l-0.161,-0.226c-0.131,-0.209 -0.169,-0.258 -0.281,-0.478c-0.252,-0.493 -0.416,-1.029 -0.481,-1.578c-0.087,-0.731 0.003,-1.48 0.259,-2.172c0.257,-0.692 0.679,-1.322 1.224,-1.828c0.341,-0.315 0.728,-0.582 1.147,-0.788c0.502,-0.248 1.048,-0.408 1.606,-0.472c0.248,-0.028 0.311,-0.025 0.561,-0.032c0.093,0.003 0.187,0.005 0.28,0.008Z" style="fill:#e74b4e;fill-rule:nonzero;"/></svg>