<?xml version="1.0" encoding="UTF-8" standalone="no"?><!DOCTYPE svg PUBLIC "-//W3C//DTD SVG 1.1//EN" "http://www.w3.org/Graphics/SVG/1.1/DTD/svg11.dtd"><svg width="100%" height="100%" viewBox="0 0 50 50" version="1.1" xmlns="http://www.w3.org/2000/svg" xmlns:xlink="http://www.w3.org/1999/xlink" xml:space="preserve" style="fill-rule:evenodd;clip-rule:evenodd;stroke-linejoin:round;stroke-miterlimit:1.41421;"><path d="M0.008,17.609c0.008,0.094 0.013,0.187 0.024,0.28c0.022,0.186 0.054,0.371 0.096,0.553c0.17,0.73 0.509,1.415 0.982,1.99c0.178,0.215 0.373,0.414 0.585,0.595c0.07,0.06 0.144,0.116 0.216,0.174l20.258,15.346c0.075,0.054 0.149,0.11 0.226,0.161c0.23,0.155 0.474,0.288 0.727,0.4c1.103,0.484 2.37,0.522 3.5,0.103c0.259,-0.096 0.51,-0.215 0.749,-0.355c0.212,-0.125 0.26,-0.166 0.46,-0.309l20.258,-15.346c0.072,-0.058 0.146,-0.114 0.216,-0.174c0.141,-0.121 0.275,-0.249 0.401,-0.386c0.443,-0.476 0.787,-1.045 1.008,-1.661c0.189,-0.528 0.286,-1.089 0.286,-1.651c0,-1.224 -0.468,-2.424 -1.292,-3.314c-0.316,-0.34 -0.68,-0.634 -1.079,-0.868c-0.398,-0.234 -0.83,-0.409 -1.277,-0.517c-0.627,-0.151 -1.283,-0.171 -1.917,-0.057c-0.544,0.097 -1.07,0.292 -1.548,0.573c-0.213,0.125 -0.26,0.165 -0.461,0.309l-17.426,13.201l-17.426,-13.201l-0.226,-0.161c-0.209,-0.131 -0.258,-0.169 -0.478,-0.281c-0.493,-0.252 -1.029,-0.416 -1.578,-0.481c-0.731,-0.087 -1.48,0.003 -2.172,0.259c-0.692,0.257 -1.322,0.679 -1.828,1.224c-0.315,0.341 -0.582,0.728 -0.788,1.147c-0.248,0.502 -0.408,1.048 -0.472,1.606c-0.028,0.248 -0.025,0.311 -0.032,0.561c0.003,0.093 0.005,0.187 0.008,0.28l0,0Z" style="fill:#e74b4e;fill-rule:nonzero;"/></svg>