<?xml version="1.0" encoding="UTF-8" standalone="no"?><!DOCTYPE svg PUBLIC "-//W3C//DTD SVG 1.1//EN" "http://www.w3.org/Graphics/SVG/1.1/DTD/svg11.dtd"><svg width="100%" height="100%" viewBox="0 0 50 50" version="1.1" xmlns="http://www.w3.org/2000/svg" xmlns:xlink="http://www.w3.org/1999/xlink" xml:space="preserve" style="fill-rule:evenodd;clip-rule:evenodd;stroke-linejoin:round;stroke-miterlimit:1.41421;"><path d="M31.123,3.921c-0.077,0.007 -0.154,0.012 -0.232,0.021c-0.154,0.018 -0.307,0.045 -0.458,0.08c-0.604,0.144 -1.172,0.429 -1.648,0.829c-0.178,0.149 -0.344,0.315 -0.493,0.493c-0.05,0.059 -0.096,0.122 -0.144,0.182l-12.715,17.086c-0.045,0.063 -0.091,0.126 -0.134,0.191c-0.127,0.194 -0.238,0.399 -0.33,0.613c-0.402,0.931 -0.433,1.999 -0.086,2.952c0.079,0.218 0.178,0.43 0.294,0.631c0.104,0.18 0.137,0.22 0.256,0.389l12.715,17.086c0.048,0.06 0.094,0.123 0.144,0.182c0.1,0.119 0.206,0.232 0.319,0.338c0.395,0.373 0.866,0.664 1.377,0.85c0.437,0.159 0.902,0.241 1.368,0.241c1.014,0.001 2.007,-0.394 2.745,-1.09c0.282,-0.266 0.525,-0.573 0.719,-0.909c0.194,-0.336 0.339,-0.7 0.429,-1.077c0.125,-0.529 0.141,-1.082 0.047,-1.617c-0.081,-0.459 -0.242,-0.903 -0.475,-1.306c-0.103,-0.179 -0.137,-0.219 -0.255,-0.389l-10.938,-14.697l10.938,-14.697l0.133,-0.191c0.108,-0.176 0.14,-0.218 0.232,-0.403c0.209,-0.416 0.345,-0.868 0.399,-1.331c0.072,-0.617 -0.002,-1.249 -0.215,-1.832c-0.212,-0.584 -0.562,-1.115 -1.014,-1.541c-0.282,-0.267 -0.603,-0.491 -0.95,-0.665c-0.416,-0.209 -0.868,-0.345 -1.331,-0.399c-0.205,-0.024 -0.258,-0.021 -0.464,-0.026c-0.078,0.002 -0.155,0.004 -0.233,0.006Z" style="fill:#d6d6d6;fill-rule:nonzero;"/></svg>