<?xml version="1.0" encoding="UTF-8" standalone="no"?><!DOCTYPE svg PUBLIC "-//W3C//DTD SVG 1.1//EN" "http://www.w3.org/Graphics/SVG/1.1/DTD/svg11.dtd"><svg width="100%" height="100%" viewBox="0 0 152 152" version="1.1" xmlns="http://www.w3.org/2000/svg" xmlns:xlink="http://www.w3.org/1999/xlink" xml:space="preserve" style="fill-rule:evenodd;clip-rule:evenodd;stroke-linejoin:round;stroke-miterlimit:1.41421;"><path d="M86.444,136.718c0,-1.206 -0.979,-2.184 -2.184,-2.184l-14.974,0c-1.206,0 -2.185,0.978 -2.185,2.184c0,1.206 0.979,2.185 2.185,2.185l14.974,0c1.205,0 2.184,-0.979 2.184,-2.185Z" style="fill:#fff;"/><path d="M88.333,130.767c0,-1.206 -0.979,-2.185 -2.184,-2.185l-18.752,0c-1.206,0 -2.185,0.979 -2.185,2.185c0,1.205 0.979,2.184 2.185,2.184l18.752,0c1.205,0 2.184,-0.979 2.184,-2.184Z" style="fill:#fff;"/><path d="M83.051,142.815c0,-1.205 -0.979,-2.184 -2.185,-2.184l-8.187,0c-1.206,0 -2.184,0.979 -2.184,2.184c0,1.206 0.978,2.185 2.184,2.185l8.187,0c1.206,0 2.185,-0.979 2.185,-2.185Z" style="fill:#fff;"/><path d="M77.496,9.449c0,-1.352 -1.098,-2.449 -2.45,-2.449c-1.351,0 -2.449,1.097 -2.449,2.449l0,16.329c0,1.351 1.098,2.449 2.449,2.449c1.352,0 2.45,-1.098 2.45,-2.449l0,-16.329Z" style="fill:#fff;"/><path d="M109.904,15.979c0.676,-1.171 0.275,-2.67 -0.896,-3.346c-1.171,-0.676 -2.67,-0.274 -3.346,0.896l-8.164,14.141c-0.676,1.171 -0.274,2.67 0.896,3.346c1.171,0.676 2.67,0.274 3.346,-0.896l8.164,-14.141Z" style="fill:#fff;"/><path d="M55.766,27.434c0.676,1.171 0.274,2.67 -0.896,3.346c-1.171,0.676 -2.67,0.274 -3.346,-0.896l-8.164,-14.141c-0.676,-1.171 -0.275,-2.67 0.896,-3.346c1.171,-0.676 2.67,-0.274 3.346,0.897l8.164,14.14Z" style="fill:#fff;"/><path d="M119.168,76.385c-0.154,-19.822 -14.87,-36.498 -34.064,-40.5c-19.331,-4.031 -40.151,5.533 -48.56,23.63c-4.251,9.149 -4.864,19.681 -1.771,29.28c3.177,9.863 10.294,18.094 19.208,23.247l1.594,-5.889l-0.096,0c-3.348,0 -4.04,4.141 -1.595,5.889c0.113,0.081 0.225,0.164 0.338,0.247c0.584,0.433 -0.265,-0.221 0.51,0.393c1.178,0.933 2.305,1.926 3.396,2.958c2.03,1.918 5.077,4.796 5.426,7.717c0.204,1.71 1.283,3.16 3.16,3.16l19.1,0c1.31,0 2.798,-0.954 3.047,-2.32c0.957,-5.251 4.958,-9.674 9.221,-12.155c2.721,-1.584 1.548,-5.889 -1.595,-5.889l-0.097,0l1.595,5.889c12.797,-7.397 21.056,-20.793 21.183,-35.657c0.034,-4.077 -6.285,-4.074 -6.32,0c-0.108,12.671 -7.166,23.907 -18.053,30.2c-2.73,1.578 -1.542,5.888 1.595,5.888l0.097,0l-1.595,-5.888c-5.762,3.354 -10.912,9.273 -12.125,15.932c1.016,-0.773 2.031,-1.546 3.047,-2.319l-19.1,0l3.16,3.159c-0.854,-7.154 -7.23,-12.792 -12.8,-16.772l-1.595,5.888l0.096,0c3.137,0 4.325,-4.31 1.596,-5.888c-8.71,-5.035 -14.994,-13.164 -17.28,-22.996c-2.142,-9.21 0.111,-18.87 5.356,-26.614c10.786,-15.924 33.289,-19.95 49.668,-10.725c10.866,6.12 17.836,17.654 17.933,30.135c0.032,4.073 6.351,4.076 6.32,0" style="fill:#fff;fill-rule:nonzero;"/><path d="M58.502,52.87c-4.574,4.046 -8.233,9.527 -10.319,15.238c-1.671,4.575 -1.861,9.735 -0.255,14.35c2.315,6.654 7.88,11.435 13.742,14.978c3.497,2.114 6.671,-3.352 3.189,-5.457c-4.571,-2.762 -9.164,-6.394 -10.982,-11.617c-1.329,-3.819 -0.75,-7.583 0.669,-11.294c1.735,-4.536 4.742,-8.472 8.425,-11.73c3.058,-2.705 -1.428,-7.158 -4.469,-4.468" style="fill:#fff;fill-rule:nonzero;"/></svg>