<?xml version="1.0" encoding="UTF-8" standalone="no"?><!DOCTYPE svg PUBLIC "-//W3C//DTD SVG 1.1//EN" "http://www.w3.org/Graphics/SVG/1.1/DTD/svg11.dtd"><svg width="100%" height="100%" viewBox="0 0 50 50" version="1.1" xmlns="http://www.w3.org/2000/svg" xmlns:xlink="http://www.w3.org/1999/xlink" xml:space="preserve" style="fill-rule:evenodd;clip-rule:evenodd;stroke-linejoin:round;stroke-miterlimit:1.41421;"><path d="M4.122,27.748c1.385,-1.917 4.061,-2.349 5.979,-0.964c3.513,2.537 8.43,6.089 8.43,6.089c0,0 12.189,-16.876 17.731,-24.548c1.483,-2.054 4.349,-2.516 6.402,-1.033c0.001,0.001 0.002,0.002 0.003,0.002c0.986,0.712 1.649,1.787 1.843,2.988c0.193,1.201 -0.098,2.429 -0.81,3.415c-5.101,7.062 -16.091,22.278 -20.673,28.622c-0.55,0.761 -1.379,1.272 -2.306,1.422c-0.926,0.149 -1.874,-0.076 -2.635,-0.625c-3.464,-2.502 -9.286,-6.707 -13,-9.39c-1.917,-1.384 -2.349,-4.061 -0.964,-5.978c0,0 0,0 0,0Z" style="fill:#fff;"/></svg>