<?xml version="1.0" encoding="UTF-8" standalone="no"?><!DOCTYPE svg PUBLIC "-//W3C//DTD SVG 1.1//EN" "http://www.w3.org/Graphics/SVG/1.1/DTD/svg11.dtd"><svg width="100%" height="100%" viewBox="0 0 50 50" version="1.1" xmlns="http://www.w3.org/2000/svg" xmlns:xlink="http://www.w3.org/1999/xlink" xml:space="preserve" style="fill-rule:evenodd;clip-rule:evenodd;stroke-linejoin:round;stroke-miterlimit:1.41421;"><path d="M25,19.231l11.537,-11.537c1.592,-1.592 4.177,-1.592 5.769,0c1.592,1.592 1.592,4.177 0,5.769l-11.537,11.537l11.537,11.537c1.592,1.592 1.592,4.177 0,5.769c-1.592,1.592 -4.177,1.592 -5.769,0l-11.537,-11.537l-11.537,11.537c-1.592,1.592 -4.177,1.592 -5.769,0c-1.592,-1.592 -1.592,-4.177 0,-5.769l11.537,-11.537l-11.537,-11.537c-1.592,-1.592 -1.592,-4.177 0,-5.769c1.592,-1.592 4.177,-1.592 5.769,0l11.537,11.537Z" style="fill:#e74b4e;"/></svg>