<?xml version="1.0" encoding="UTF-8" standalone="no"?><!DOCTYPE svg PUBLIC "-//W3C//DTD SVG 1.1//EN" "http://www.w3.org/Graphics/SVG/1.1/DTD/svg11.dtd"><svg width="100%" height="100%" viewBox="0 0 50 50" version="1.1" xmlns="http://www.w3.org/2000/svg" xmlns:xlink="http://www.w3.org/1999/xlink" xml:space="preserve" style="fill-rule:evenodd;clip-rule:evenodd;stroke-linejoin:round;stroke-miterlimit:1.41421;"><path d="M41.595,9.062c0.096,0.098 0.188,0.199 0.275,0.303c0.19,0.228 0.359,0.473 0.505,0.731c0.217,0.382 0.383,0.793 0.492,1.218c0.109,0.426 0.161,0.866 0.155,1.306c-0.004,0.257 -0.028,0.513 -0.071,0.765c-0.021,0.121 -0.046,0.242 -0.075,0.361c-0.997,3.944 -2.002,7.886 -3.04,11.82c-0.105,0.39 -0.228,0.776 -0.37,1.155c-0.273,0.722 -0.614,1.418 -1.019,2.075c-0.325,0.529 -0.692,1.033 -1.095,1.506c-0.186,0.219 -0.38,0.43 -0.581,0.635c-4.484,4.541 -9.025,9.026 -13.538,13.539c-0.134,0.132 -0.272,0.258 -0.417,0.377c-0.325,0.266 -0.68,0.497 -1.055,0.685c-0.752,0.378 -1.585,0.587 -2.426,0.608c-0.866,0.021 -1.734,-0.157 -2.521,-0.517c-0.403,-0.184 -0.784,-0.416 -1.134,-0.688c-0.167,-0.13 -0.326,-0.271 -0.479,-0.418c-3.044,-3.006 -6.052,-6.051 -9.077,-9.077c-0.132,-0.133 -0.259,-0.272 -0.378,-0.417c-0.266,-0.325 -0.496,-0.679 -0.685,-1.055c-0.367,-0.73 -0.575,-1.538 -0.605,-2.355c-0.034,-0.889 0.144,-1.783 0.514,-2.592c0.185,-0.403 0.416,-0.784 0.688,-1.134c0.131,-0.167 0.271,-0.326 0.418,-0.478c4.501,-4.557 9.029,-9.087 13.587,-13.587c0.289,-0.283 0.591,-0.553 0.906,-0.806c0.602,-0.483 1.25,-0.909 1.933,-1.269c0.549,-0.29 1.121,-0.537 1.709,-0.739c0.271,-0.093 0.546,-0.176 0.823,-0.251c3.933,-1.037 7.875,-2.042 11.819,-3.039c0.133,-0.033 0.266,-0.061 0.401,-0.083c0.293,-0.047 0.589,-0.069 0.886,-0.063c0.439,0.008 0.877,0.074 1.299,0.197c0.409,0.119 0.803,0.29 1.169,0.51c0.243,0.145 0.473,0.312 0.688,0.497c0.093,0.08 0.182,0.163 0.269,0.249c0.01,0.011 0.02,0.021 0.03,0.031ZM40.088,10.478c-0.165,-0.161 -0.346,-0.302 -0.543,-0.421c-0.428,-0.256 -0.92,-0.399 -1.419,-0.412c-0.253,-0.007 -0.505,0.021 -0.751,0.079c-3.949,0.963 -7.88,2 -11.81,3.037c-0.283,0.076 -0.564,0.163 -0.84,0.263c-0.576,0.209 -1.132,0.471 -1.66,0.781c-0.468,0.274 -0.914,0.587 -1.331,0.934c-0.226,0.188 -0.443,0.386 -0.652,0.592c-4.518,4.5 -9.045,8.991 -13.526,13.527c-0.084,0.087 -0.164,0.176 -0.239,0.27c-0.177,0.222 -0.328,0.463 -0.449,0.719c-0.249,0.527 -0.369,1.113 -0.347,1.695c0.018,0.492 0.137,0.979 0.347,1.424c0.121,0.255 0.272,0.497 0.449,0.718c0.075,0.094 0.155,0.184 0.239,0.27c3.01,3.049 6.04,6.079 9.089,9.09c0.086,0.083 0.176,0.163 0.27,0.239c0.221,0.176 0.463,0.327 0.719,0.448c0.581,0.275 1.234,0.392 1.875,0.336c0.445,-0.039 0.882,-0.16 1.283,-0.356c0.241,-0.117 0.469,-0.261 0.679,-0.428c0.094,-0.076 0.183,-0.156 0.27,-0.239c4.547,-4.491 9.066,-9.009 13.556,-13.557c0.216,-0.219 0.421,-0.448 0.616,-0.686c0.387,-0.474 0.731,-0.984 1.026,-1.521c0.261,-0.476 0.483,-0.973 0.664,-1.485c0.093,-0.264 0.175,-0.531 0.246,-0.802c1.017,-3.921 2.066,-7.834 3.026,-11.769c0.058,-0.246 0.086,-0.498 0.079,-0.751c-0.013,-0.499 -0.156,-0.991 -0.412,-1.419c-0.118,-0.197 -0.26,-0.378 -0.42,-0.542c-0.017,-0.018 -0.017,-0.017 -0.034,-0.034ZM37.693,12.898c0.137,0.143 0.266,0.293 0.384,0.453c0.238,0.324 0.43,0.683 0.567,1.061c0.158,0.434 0.244,0.893 0.255,1.354c0.011,0.478 -0.058,0.957 -0.204,1.411c-0.129,0.399 -0.317,0.778 -0.556,1.121c-0.257,0.37 -0.574,0.699 -0.934,0.97c-0.349,0.263 -0.739,0.472 -1.153,0.617c-0.483,0.169 -0.997,0.249 -1.509,0.237c-0.53,-0.013 -1.057,-0.125 -1.547,-0.33c-0.507,-0.213 -0.971,-0.526 -1.36,-0.915c-0.389,-0.389 -0.702,-0.853 -0.915,-1.36c-0.205,-0.489 -0.317,-1.017 -0.33,-1.547c-0.012,-0.512 0.069,-1.026 0.238,-1.509c0.144,-0.413 0.353,-0.804 0.616,-1.153c0.272,-0.36 0.6,-0.676 0.97,-0.934c0.329,-0.229 0.691,-0.411 1.072,-0.539c0.469,-0.158 0.965,-0.232 1.46,-0.221c0.461,0.011 0.92,0.097 1.354,0.255c0.378,0.137 0.737,0.329 1.061,0.567c0.16,0.118 0.311,0.247 0.453,0.384c0.039,0.039 0.039,0.039 0.078,0.078ZM36.172,14.3c-0.073,-0.071 -0.151,-0.137 -0.233,-0.198c-0.166,-0.122 -0.35,-0.22 -0.544,-0.29c-0.447,-0.163 -0.945,-0.175 -1.4,-0.034c-0.195,0.06 -0.383,0.149 -0.554,0.262c-0.209,0.138 -0.394,0.312 -0.545,0.513c-0.135,0.179 -0.242,0.378 -0.316,0.59c-0.087,0.249 -0.128,0.514 -0.122,0.778c0.006,0.273 0.064,0.544 0.17,0.796c0.109,0.261 0.27,0.499 0.47,0.699c0.2,0.199 0.437,0.36 0.698,0.47c0.252,0.105 0.523,0.163 0.797,0.169c0.263,0.007 0.528,-0.035 0.777,-0.122c0.203,-0.071 0.395,-0.172 0.569,-0.299c0.209,-0.154 0.391,-0.345 0.535,-0.562c0.117,-0.179 0.208,-0.375 0.269,-0.58c0.133,-0.448 0.118,-0.935 -0.041,-1.374c-0.071,-0.194 -0.169,-0.377 -0.291,-0.543c-0.06,-0.083 -0.127,-0.16 -0.198,-0.234c-0.02,-0.021 -0.02,-0.021 -0.041,-0.041Z" style="fill:#e74b4e;fill-rule:nonzero;"/></svg>