<?xml version="1.0" encoding="UTF-8" standalone="no"?><!DOCTYPE svg PUBLIC "-//W3C//DTD SVG 1.1//EN" "http://www.w3.org/Graphics/SVG/1.1/DTD/svg11.dtd"><svg width="100%" height="100%" viewBox="0 0 152 152" version="1.1" xmlns="http://www.w3.org/2000/svg" xmlns:xlink="http://www.w3.org/1999/xlink" xml:space="preserve" style="fill-rule:evenodd;clip-rule:evenodd;stroke-linecap:round;stroke-linejoin:round;stroke-miterlimit:1.5;"><path d="M145,44.844c0,-4.329 -3.515,-7.844 -7.844,-7.844l-122.312,0c-4.329,0 -7.844,3.515 -7.844,7.844l0,67.312c0,4.329 3.515,7.844 7.844,7.844l122.312,0c4.329,0 7.844,-3.515 7.844,-7.844l0,-67.312Z" style="fill:none;stroke:#fff;stroke-width:6px;"/><path d="M94.191,81.195l44.685,33.029c0.871,0.644 1.231,1.774 0.892,2.802c-0.339,1.029 -1.3,1.724 -2.383,1.724c-24.118,0 -98.652,0 -122.77,0c-1.083,0 -2.044,-0.695 -2.383,-1.724c-0.339,-1.028 0.021,-2.158 0.892,-2.802l44.685,-33.029l9.908,8.473c4.732,3.279 11.759,3.285 16.566,0l9.908,-8.473Z" style="fill:none;stroke:#fff;stroke-width:5px;"/><path d="M57.809,81.195l-45.645,-39.03c-0.799,-0.682 -1.087,-1.79 -0.723,-2.775c0.364,-0.986 1.303,-1.64 2.353,-1.64c23.466,0 100.946,0 124.412,0c1.05,0 1.989,0.654 2.353,1.64c0.364,0.985 0.076,2.093 -0.723,2.775l-45.645,39.03c-13.162,15.684 -25.149,13.557 -36.382,0Z" style="fill:none;stroke:#fff;stroke-width:5px;"/></svg>