<?xml version="1.0" encoding="UTF-8" standalone="no"?><!DOCTYPE svg PUBLIC "-//W3C//DTD SVG 1.1//EN" "http://www.w3.org/Graphics/SVG/1.1/DTD/svg11.dtd"><svg width="100%" height="100%" viewBox="0 0 152 152" version="1.1" xmlns="http://www.w3.org/2000/svg" xmlns:xlink="http://www.w3.org/1999/xlink" xml:space="preserve" style="fill-rule:evenodd;clip-rule:evenodd;stroke-linecap:round;stroke-linejoin:round;stroke-miterlimit:1.5;"><path d="M115.614,34.517l4.532,15.928c0.044,0.155 0.127,0.297 0.241,0.411c0.114,0.114 0.256,0.197 0.411,0.241l15.928,4.532l-15.928,4.532c-0.155,0.044 -0.297,0.127 -0.411,0.241c-0.114,0.114 -0.197,0.255 -0.241,0.411l-4.532,15.928l-4.532,-15.928c-0.044,-0.156 -0.127,-0.297 -0.241,-0.411c-0.114,-0.114 -0.255,-0.197 -0.411,-0.241l-15.928,-4.532l15.928,-4.532c0.156,-0.044 0.297,-0.127 0.411,-0.241c0.114,-0.114 0.197,-0.256 0.241,-0.411l4.532,-15.928Z" style="fill:none;stroke:#fff;stroke-width:4px;"/><path d="M105.058,69.704l3.105,10.914c0.03,0.106 0.087,0.203 0.165,0.281c0.079,0.078 0.175,0.135 0.282,0.165l10.914,3.105l-10.914,3.106c-0.107,0.03 -0.203,0.087 -0.282,0.165c-0.078,0.078 -0.135,0.175 -0.165,0.281l-3.105,10.914l-3.105,-10.914c-0.03,-0.106 -0.087,-0.203 -0.166,-0.281c-0.078,-0.078 -0.175,-0.135 -0.281,-0.165l-10.914,-3.106l10.914,-3.105c0.106,-0.03 0.203,-0.087 0.281,-0.165c0.079,-0.078 0.136,-0.175 0.166,-0.281l3.105,-10.914Z" style="fill:none;stroke:#fff;stroke-width:3px;"/><path d="M31.508,20.051l3.105,10.914c0.03,0.106 0.087,0.203 0.165,0.281c0.078,0.078 0.175,0.135 0.282,0.166l10.914,3.105l-10.914,3.105c-0.107,0.03 -0.204,0.087 -0.282,0.165c-0.078,0.078 -0.135,0.175 -0.165,0.281l-3.105,10.914l-3.105,-10.914c-0.031,-0.106 -0.088,-0.203 -0.166,-0.281c-0.078,-0.078 -0.175,-0.135 -0.281,-0.165l-10.914,-3.105l10.914,-3.105c0.106,-0.031 0.203,-0.088 0.281,-0.166c0.078,-0.078 0.135,-0.175 0.166,-0.281l3.105,-10.914Z" style="fill:none;stroke:#fff;stroke-width:3px;"/><path d="M133.208,66.967l2.098,7.374c0.02,0.072 0.058,0.137 0.111,0.19c0.053,0.053 0.119,0.092 0.19,0.112l7.375,2.098l-7.375,2.098c-0.071,0.021 -0.137,0.059 -0.19,0.112c-0.053,0.053 -0.091,0.118 -0.111,0.19l-2.098,7.374l-2.099,-7.374c-0.02,-0.072 -0.058,-0.137 -0.111,-0.19c-0.053,-0.053 -0.118,-0.091 -0.19,-0.112l-7.375,-2.098l7.375,-2.098c0.072,-0.02 0.137,-0.059 0.19,-0.112c0.053,-0.053 0.091,-0.118 0.111,-0.19l2.099,-7.374Z" style="fill:none;stroke:#fff;stroke-width:3px;"/><g><path d="M87.2,34.517l-12.779,-6.844l-57.379,107.151l12.779,6.843l57.379,-107.15Z" style="fill:none;stroke:#fff;stroke-width:5px;"/><path d="M59.944,54.707l12.78,6.843" style="fill:none;stroke:#fff;stroke-width:5px;"/></g></svg>