<?xml version="1.0" encoding="UTF-8" standalone="no"?><!DOCTYPE svg PUBLIC "-//W3C//DTD SVG 1.1//EN" "http://www.w3.org/Graphics/SVG/1.1/DTD/svg11.dtd"><svg width="100%" height="100%" viewBox="0 0 50 50" version="1.1" xmlns="http://www.w3.org/2000/svg" xmlns:xlink="http://www.w3.org/1999/xlink" xml:space="preserve" style="fill-rule:evenodd;clip-rule:evenodd;stroke-linejoin:round;stroke-miterlimit:1.41421;"><g><path d="M41.55,16.52l-9.18,-9.18l-22.14,22.14l9.18,9.18l22.14,-22.14Z" style="fill:#d6d6d6;"/><path d="M4.141,45.158c-0.117,0.044 -0.249,0.016 -0.337,-0.072c-0.088,-0.088 -0.116,-0.22 -0.072,-0.337c1.1,-2.88 5.418,-14.189 5.418,-14.189l9.18,9.18c0,0 -11.31,4.318 -14.189,5.418Z" style="fill:#d6d6d6;"/><path d="M46.245,11.825c1.582,-1.582 1.582,-4.148 0,-5.73c-1.099,-1.099 -2.351,-2.352 -3.45,-3.45c-1.582,-1.582 -4.148,-1.582 -5.73,0c-1.735,1.735 -3.615,3.615 -3.615,3.615l9.18,9.18c0,0 1.88,-1.88 3.615,-3.615Z" style="fill:#d6d6d6;"/></g></svg>