<?xml version="1.0" encoding="UTF-8" standalone="no"?><!DOCTYPE svg PUBLIC "-//W3C//DTD SVG 1.1//EN" "http://www.w3.org/Graphics/SVG/1.1/DTD/svg11.dtd"><svg width="100%" height="100%" viewBox="0 0 152 152" version="1.1" xmlns="http://www.w3.org/2000/svg" xmlns:xlink="http://www.w3.org/1999/xlink" xml:space="preserve" style="fill-rule:evenodd;clip-rule:evenodd;stroke-linecap:round;stroke-linejoin:round;stroke-miterlimit:1.5;"><path d="M56.514,113.951c0.552,-0.956 0.224,-2.181 -0.732,-2.732c-0.956,-0.552 -2.18,-0.224 -2.732,0.732l-12.882,22.312c-0.552,0.956 -0.224,2.18 0.732,2.732c0.956,0.552 2.18,0.224 2.732,-0.732l12.882,-22.312Z" style="fill:#fff;"/><path d="M63.442,117.951c0.552,-0.956 0.224,-2.181 -0.732,-2.732c-0.956,-0.552 -2.18,-0.224 -2.732,0.732l-7.611,13.183c-0.552,0.956 -0.224,2.18 0.732,2.732c0.956,0.552 2.18,0.224 2.732,-0.732l7.611,-13.183Z" style="fill:#fff;"/><path d="M49.586,109.951c0.552,-0.956 0.224,-2.181 -0.732,-2.732c-0.956,-0.552 -2.18,-0.224 -2.732,0.732l-7.612,13.183c-0.551,0.956 -0.223,2.18 0.733,2.732c0.955,0.552 2.18,0.224 2.732,-0.732l7.611,-13.183Z" style="fill:#fff;"/><path d="M87.656,110.184c6.383,-5.887 9.594,-10.15 11.803,-14.196c5.453,5.071 2.324,18.275 -6.982,29.468c0.487,-5.502 -0.88,-11.607 -4.821,-15.272Z" style="fill:none;stroke:#fff;stroke-width:5px;"/><path d="M40.309,82.848c1.906,-8.472 3.992,-13.384 6.392,-17.32c-7.122,-2.188 -16.997,7.123 -22.037,20.778c4.523,-3.172 10.497,-5.04 15.645,-3.458Z" style="fill:none;stroke:#fff;stroke-width:5px;"/><path d="M114.639,47.431c-1.036,33.351 -18.398,55.49 -36.038,69.457l-39.138,-22.597c3.276,-22.26 13.767,-48.365 42.132,-65.938l33.044,19.078Zm-26.132,-22.999c6.63,-3.438 14.104,-6.447 22.525,-8.909l0.067,0.276c2.036,8.42 3.146,16.306 3.48,23.686l-26.072,-15.053Z" style="fill:none;stroke:#fff;stroke-width:5px;"/><path d="M92.032,48.432c4.302,2.483 5.778,7.992 3.294,12.294c-2.483,4.302 -7.992,5.778 -12.294,3.294c-4.302,-2.483 -5.778,-7.992 -3.294,-12.294c2.484,-4.302 7.992,-5.778 12.294,-3.294Z" style="fill:none;stroke:#fff;stroke-width:4px;"/></svg>