<?xml version="1.0" encoding="UTF-8" standalone="no"?><!DOCTYPE svg PUBLIC "-//W3C//DTD SVG 1.1//EN" "http://www.w3.org/Graphics/SVG/1.1/DTD/svg11.dtd"><svg width="100%" height="100%" viewBox="0 0 50 50" version="1.1" xmlns="http://www.w3.org/2000/svg" xmlns:xlink="http://www.w3.org/1999/xlink" xml:space="preserve" style="fill-rule:evenodd;clip-rule:evenodd;stroke-linejoin:round;stroke-miterlimit:1.41421;"><g><path d="M25.161,0c1.22,0.012 2.437,0.103 3.643,0.288c2.235,0.342 4.421,0.99 6.481,1.922c2.517,1.139 4.84,2.699 6.851,4.593c2.08,1.96 3.823,4.275 5.126,6.819c1.073,2.093 1.847,4.338 2.29,6.649c0.509,2.653 0.584,5.389 0.226,8.066c-0.34,2.548 -1.078,5.039 -2.18,7.361c-1.27,2.676 -3.019,5.119 -5.137,7.187c-2.23,2.177 -4.864,3.934 -7.734,5.149c-3.02,1.278 -6.287,1.945 -9.566,1.965c-3.286,0.021 -6.566,-0.605 -9.608,-1.848c-2.886,-1.18 -5.543,-2.906 -7.799,-5.058c-2.142,-2.042 -3.919,-4.463 -5.221,-7.121c-1.129,-2.305 -1.897,-4.784 -2.269,-7.323c-0.392,-2.674 -0.35,-5.412 0.126,-8.071c0.415,-2.319 1.161,-4.577 2.21,-6.686c1.229,-2.471 2.869,-4.733 4.831,-6.672c2.036,-2.012 4.414,-3.672 7.007,-4.883c2.046,-0.956 4.22,-1.63 6.448,-2c1.2,-0.199 2.413,-0.306 3.63,-0.333c0.215,-0.003 0.43,-0.005 0.645,-0.004ZM24.849,1.818c-1.131,0.011 -2.26,0.096 -3.379,0.267c-2.071,0.317 -4.097,0.918 -6.006,1.782c-2.335,1.056 -4.489,2.503 -6.354,4.26c-1.862,1.753 -3.432,3.813 -4.626,6.075c-1.016,1.925 -1.758,3.994 -2.195,6.128c-0.522,2.549 -0.611,5.187 -0.266,7.766c0.315,2.362 0.999,4.671 2.021,6.823c1.177,2.481 2.8,4.747 4.765,6.665c2.067,2.019 4.51,3.649 7.171,4.775c2.801,1.186 5.829,1.803 8.869,1.822c3.047,0.02 6.089,-0.56 8.909,-1.713c2.676,-1.095 5.14,-2.695 7.232,-4.691c1.987,-1.894 3.636,-4.139 4.843,-6.605c1.046,-2.136 1.758,-4.433 2.103,-6.787c0.363,-2.48 0.324,-5.02 -0.117,-7.487c-0.384,-2.149 -1.076,-4.242 -2.048,-6.196c-1.14,-2.292 -2.661,-4.39 -4.481,-6.189c-1.888,-1.865 -4.094,-3.405 -6.499,-4.529c-1.896,-0.885 -3.911,-1.511 -5.975,-1.853c-1.114,-0.185 -2.239,-0.284 -3.367,-0.309c-0.2,-0.003 -0.4,-0.004 -0.6,-0.004Z" style="fill:#e74b4e;fill-rule:nonzero;"/><path d="M25.068,11.154c0.339,0.003 0.678,0.023 1.015,0.064c0.674,0.082 1.339,0.241 1.976,0.475c0.94,0.344 1.82,0.85 2.592,1.487c0.657,0.542 1.235,1.179 1.712,1.884c0.473,0.7 0.845,1.466 1.101,2.27c0.282,0.887 0.421,1.817 0.415,2.747c-0.006,1.009 -0.185,2.014 -0.528,2.962c-0.264,0.727 -0.623,1.418 -1.066,2.052c-0.209,0.299 -0.437,0.583 -0.68,0.855l-0.001,0.002c0.049,0.02 0.099,0.04 0.148,0.06c0.062,0.026 0.124,0.052 0.186,0.079c0.123,0.053 0.246,0.107 0.368,0.163c0.271,0.125 0.539,0.258 0.803,0.398c0.881,0.469 1.718,1.025 2.483,1.667c0.64,0.538 1.229,1.137 1.747,1.793c0.643,0.816 1.175,1.72 1.551,2.689c0.097,0.25 0.184,0.505 0.26,0.763c0.021,0.072 0.042,0.144 0.061,0.216c0.024,0.089 0.046,0.178 0.062,0.269c0.036,0.199 0.047,0.403 0.033,0.605c-0.015,0.236 -0.064,0.47 -0.145,0.692c-0.118,0.327 -0.305,0.628 -0.545,0.879c-0.246,0.258 -0.546,0.462 -0.877,0.595c-0.187,0.076 -0.383,0.129 -0.582,0.158c-0.108,0.015 -0.215,0.023 -0.324,0.025c-0.173,0.001 -0.345,0.002 -0.518,0.002c-0.372,0.002 -0.743,0.003 -1.115,0.004c-4.551,0.012 -9.103,0.014 -13.654,0.015c-2.033,0.001 -4.067,0.001 -6.1,0.002c-0.753,0 -1.506,0.004 -2.258,-0.001c-0.037,0 -0.037,0 -0.074,-0.002c-0.096,-0.005 -0.193,-0.014 -0.288,-0.029c-0.213,-0.034 -0.421,-0.095 -0.619,-0.181c-0.218,-0.096 -0.423,-0.222 -0.607,-0.375c-0.251,-0.209 -0.461,-0.468 -0.615,-0.756c-0.18,-0.338 -0.282,-0.716 -0.296,-1.098c-0.008,-0.192 0.007,-0.386 0.044,-0.575c0.015,-0.081 0.036,-0.16 0.058,-0.24c0.023,-0.086 0.048,-0.173 0.075,-0.258c0.087,-0.286 0.188,-0.567 0.301,-0.844c0.401,-0.976 0.958,-1.884 1.626,-2.7c0.571,-0.698 1.223,-1.328 1.93,-1.887c0.762,-0.603 1.588,-1.124 2.455,-1.562c0.268,-0.136 0.54,-0.263 0.815,-0.383c0.124,-0.054 0.248,-0.106 0.373,-0.157l0.058,-0.024c-0.038,-0.042 -0.075,-0.085 -0.113,-0.128c-0.035,-0.041 -0.071,-0.083 -0.106,-0.124c-0.234,-0.281 -0.452,-0.574 -0.65,-0.881c-0.411,-0.635 -0.74,-1.323 -0.975,-2.042c-0.309,-0.942 -0.455,-1.936 -0.437,-2.928c0.018,-0.908 0.174,-1.812 0.465,-2.672c0.385,-1.135 1.003,-2.188 1.803,-3.079c0.474,-0.528 1.012,-0.999 1.597,-1.4c0.562,-0.385 1.167,-0.704 1.802,-0.95c0.632,-0.245 1.291,-0.416 1.962,-0.51c0.354,-0.05 0.71,-0.077 1.067,-0.085c0.076,-0.001 0.153,-0.001 0.229,-0.001ZM24.966,13.075c-0.267,0.002 -0.533,0.018 -0.797,0.05c-0.528,0.064 -1.047,0.188 -1.546,0.371c-0.736,0.27 -1.425,0.666 -2.03,1.166c-0.656,0.541 -1.211,1.201 -1.631,1.941c-0.314,0.553 -0.551,1.149 -0.702,1.767c-0.186,0.762 -0.241,1.556 -0.164,2.337c0.077,0.79 0.291,1.565 0.631,2.281c0.366,0.772 0.876,1.475 1.497,2.061l0.035,0.035c0.044,0.048 0.086,0.097 0.125,0.149c0.085,0.116 0.154,0.245 0.203,0.38c0.048,0.135 0.077,0.277 0.086,0.421c0.013,0.227 -0.026,0.457 -0.115,0.667c-0.08,0.191 -0.201,0.366 -0.352,0.508c-0.093,0.089 -0.198,0.165 -0.311,0.226c-0.057,0.032 -0.116,0.058 -0.177,0.082c-0.07,0.026 -0.14,0.051 -0.21,0.077c-0.362,0.136 -0.719,0.283 -1.069,0.446c-0.289,0.135 -0.573,0.28 -0.852,0.435c-0.223,0.124 -0.443,0.254 -0.658,0.391c-0.188,0.12 -0.373,0.245 -0.555,0.374c-1.122,0.803 -2.115,1.804 -2.835,2.986c-0.109,0.177 -0.211,0.359 -0.306,0.544c-0.078,0.151 -0.15,0.305 -0.218,0.46c-0.053,0.121 -0.103,0.244 -0.15,0.368c-0.064,0.167 -0.121,0.337 -0.173,0.509c-0.017,0.057 -0.034,0.115 -0.05,0.172c-0.013,0.048 -0.026,0.096 -0.031,0.145c-0.02,0.194 0.054,0.39 0.199,0.521c0.047,0.043 0.101,0.078 0.159,0.105c0.078,0.035 0.161,0.053 0.246,0.055c0.743,0.005 1.487,0 2.23,0c2.034,0 4.067,-0.001 6.101,-0.001c2.865,-0.001 5.73,-0.003 8.596,-0.006c2.216,-0.003 4.433,-0.006 6.649,-0.015c0.016,0 0.032,-0.001 0.049,-0.002c0.067,-0.005 0.133,-0.021 0.195,-0.048c0.056,-0.025 0.109,-0.058 0.155,-0.099c0.1,-0.088 0.168,-0.209 0.192,-0.34c0.011,-0.063 0.012,-0.129 0.003,-0.193c-0.005,-0.03 -0.012,-0.059 -0.02,-0.088c-0.015,-0.057 -0.031,-0.115 -0.047,-0.172c-0.101,-0.345 -0.225,-0.683 -0.371,-1.011c-0.538,-1.201 -1.368,-2.257 -2.348,-3.13c-0.899,-0.801 -1.927,-1.454 -3.016,-1.964c-0.269,-0.125 -0.541,-0.242 -0.817,-0.351c-0.141,-0.056 -0.284,-0.109 -0.427,-0.16l-0.034,-0.013c-0.06,-0.024 -0.119,-0.05 -0.177,-0.082c-0.112,-0.061 -0.216,-0.137 -0.309,-0.224c-0.174,-0.165 -0.307,-0.371 -0.386,-0.597c-0.058,-0.169 -0.086,-0.348 -0.081,-0.527c0.003,-0.143 0.028,-0.286 0.072,-0.422c0.059,-0.182 0.154,-0.353 0.277,-0.499c0.031,-0.038 0.065,-0.073 0.1,-0.108c0.016,-0.016 0.033,-0.031 0.049,-0.048c0.031,-0.029 0.062,-0.06 0.092,-0.09c0.04,-0.041 0.08,-0.082 0.119,-0.123c0.206,-0.219 0.398,-0.45 0.575,-0.693c0.347,-0.477 0.632,-0.998 0.848,-1.548c0.286,-0.732 0.445,-1.512 0.471,-2.298c0.025,-0.761 -0.074,-1.526 -0.296,-2.255c-0.213,-0.699 -0.538,-1.363 -0.958,-1.962c-0.408,-0.581 -0.905,-1.099 -1.469,-1.531c-0.533,-0.409 -1.126,-0.74 -1.754,-0.979c-0.482,-0.184 -0.985,-0.313 -1.495,-0.384c-0.278,-0.039 -0.557,-0.06 -0.838,-0.066c-0.06,-0.001 -0.12,-0.002 -0.179,-0.001Z" style="fill:#e74b4e;fill-rule:nonzero;"/></g></svg>